<svg preserveAspectRatio="none" overflow="visible" style="display: block;" width="40" height="64" viewBox="0 0 40 64" fill="none" xmlns="http://www.w3.org/2000/svg">
<g id="Glyph">
<path id="Vector" d="M20 63.5C23.3137 63.5 26 62.3807 26 61C26 59.6193 23.3137 58.5 20 58.5C16.6863 58.5 14 59.6193 14 61C14 62.3807 16.6863 63.5 20 63.5Z" fill="black" fill-opacity="0.5"/>
<path id="Vector_2" d="M21.2 31.2C21.2 30.5373 20.6627 30 20 30C19.3373 30 18.8 30.5373 18.8 31.2V58.8C18.8 59.4627 19.3373 60 20 60C20.6627 60 21.2 59.4627 21.2 58.8V31.2Z" fill="#8A6A3B"/>
<path id="Vector_3" d="M20 34C28.8366 34 36 26.8366 36 18C36 9.16344 28.8366 2 20 2C11.1634 2 4 9.16344 4 18C4 26.8366 11.1634 34 20 34Z" fill="#8A6A3B"/>
<path id="Vector_4" d="M20 24C23.3137 24 26 21.3137 26 18C26 14.6863 23.3137 12 20 12C16.6863 12 14 14.6863 14 18C14 21.3137 16.6863 24 20 24Z" fill="white"/>
</g>
</svg>
